<?xml version="1.0" encoding="utf-8"?>
<!-- Generator: Adobe Illustrator 22.0.1, SVG Export Plug-In . SVG Version: 6.00 Build 0)  -->
<svg version="1.1" id="Capa_1" xmlns="http://www.w3.org/2000/svg" xmlns:xlink="http://www.w3.org/1999/xlink" x="0px" y="0px"
	 viewBox="0 0 512 512" style="enable-background:new 0 0 512 512;" xml:space="preserve">
<style type="text/css">
	.st0{fill:#0D73AD;}
</style>
<g>
	<g>
		<path class="st0" d="M117.5,234.7H10.9c-5.9,0-10.7,4.8-10.7,10.7v256c0,5.9,4.8,10.7,10.7,10.7h106.7c5.9,0,10.7-4.8,10.7-10.7
			v-256C128.2,239.4,123.5,234.7,117.5,234.7z"/>
	</g>
</g>
<g>
	<g>
		<path class="st0" d="M309.1,0H202.5c-5.9,0-10.7,4.8-10.7,10.7v490.7c0,5.9,4.8,10.7,10.7,10.7h106.7c5.9,0,10.7-4.8,10.7-10.7
			V10.7C319.8,4.8,315,0,309.1,0z"/>
	</g>
</g>
<g>
	<g>
		<path class="st0" d="M501.1,106.7H394.5c-5.9,0-10.7,4.8-10.7,10.7v384c0,5.9,4.8,10.7,10.7,10.7h106.7c5.9,0,10.7-4.8,10.7-10.7
			v-384C511.8,111.4,507,106.7,501.1,106.7z"/>
	</g>
</g>
</svg>
