<?xml version="1.0" encoding="utf-8"?>
<!-- Generator: Adobe Illustrator 22.0.1, SVG Export Plug-In . SVG Version: 6.00 Build 0)  -->
<svg version="1.1" id="圖層_1" focusable="false" xmlns="http://www.w3.org/2000/svg" xmlns:xlink="http://www.w3.org/1999/xlink"
	 x="0px" y="0px" viewBox="0 0 512 512" style="enable-background:new 0 0 512 512;" xml:space="preserve">
<style type="text/css">
	.st0{fill:#0D73AD;}
</style>
<path class="st0" d="M505,442.7L405.3,343c-4.5-4.5-10.6-7-17-7H372c27.6-35.3,44-79.7,44-128C416,93.1,322.9,0,208,0S0,93.1,0,208
	s93.1,208,208,208c48.3,0,92.7-16.4,128-44v16.3c0,6.4,2.5,12.5,7,17l99.7,99.7c9.4,9.4,24.6,9.4,33.9,0l28.3-28.3
	C514.3,467.3,514.3,452.1,505,442.7L505,442.7z M208,352c-79.5,0-144-64.3-144-144c0-79.5,64.4-144,144-144c79.5,0,144,64.3,144,144
	C352,287.5,287.7,352,208,352z M208,112c-40.8,0-73.8,33.1-73.8,73.8c0,33,48.3,93,66.8,114.9c3.3,3.9,9.1,4.4,13,1.2
	c0.4-0.4,0.8-0.7,1.2-1.2c18.5-21.8,66.8-81.9,66.8-114.9C281.9,145.1,248.8,112,208,112L208,112z M208,208c-13.3,0-24-10.8-24-24
	c0-13.3,10.8-24,24-24s24,10.7,24,24C232,197.3,221.3,208,208,208z"/>
</svg>
