<?xml version="1.0" encoding="utf-8"?>
<!-- Generator: Adobe Illustrator 22.0.1, SVG Export Plug-In . SVG Version: 6.00 Build 0)  -->
<svg version="1.1" id="Capa_1" xmlns="http://www.w3.org/2000/svg" xmlns:xlink="http://www.w3.org/1999/xlink" x="0px" y="0px"
	 viewBox="0 0 276.4 276.4" style="enable-background:new 0 0 276.4 276.4;" xml:space="preserve">
<style type="text/css">
	.st0{fill:#0D73AD;}
</style>
<g>
	<path class="st0" d="M263.2,0H13.2C5.9,0,0,5.9,0,13.2v249.9c0,7.3,5.9,13.2,13.2,13.2h249.9c7.3,0,13.2-5.9,13.2-13.2V13.2
		C276.4,5.9,270.5,0,263.2,0z M79.7,231H43.2v-36.6h36.6L79.7,231L79.7,231z M79.7,160.5H43.2v-36.6h36.6L79.7,160.5L79.7,160.5z
		 M79.7,89.9H43.2V53.4h36.6L79.7,89.9L79.7,89.9z M209.7,221.6h-98.6c-4.9,0-8.8-4-8.8-8.8c0-4.9,4-8.8,8.8-8.8h98.6
		c4.9,0,8.8,3.9,8.8,8.8C218.5,217.6,214.6,221.6,209.7,221.6z M209.7,151h-98.6c-4.9,0-8.8-4-8.8-8.8c0-4.9,4-8.8,8.8-8.8h98.6
		c4.9,0,8.8,3.9,8.8,8.8C218.5,147.1,214.6,151,209.7,151z M215,80.5h-98.6c-4.9,0-8.8-3.9-8.8-8.8c0-4.9,3.9-8.8,8.8-8.8H215
		c4.9,0,8.8,3.9,8.8,8.8C223.8,76.5,219.9,80.5,215,80.5z"/>
</g>
</svg>
